# xmcd
#
# Track frame offsets:
#	150
#	13549
#	26428
#	38448
#	48805
#	60239
#	68813
#	79606
#	92194
#	102628
#	115184
#	125416
#	135021
#	146823
#	156890
#	168537
#	178135
#	187051
#	199714
#	211585
#	223349
#	232916
#	244638
#	255079
#	263863
#
# Disc length: 3663 seconds
#
# Revision: 0
# Processed by: cddbd v1.5.2PL0 Copyright (c) Steve Scherf et al.
# Submitted via: audiograbber 1.83.01
#
DISCID=4d0e4d19
DTITLE=Various Artist - Seaside Special 2 CD2
DYEAR=2014
DGENRE=Oldies
TTITLE0=Shirley Bassey - As Long As He Needs Me
TTITLE1=Ken Dodd - True Love
TTITLE2=Jim Dale - The Legend of Nellie D
TTITLE3=Petula Clark - Jumble Sale
TTITLE4=Ray Ellington - The Madison
TTITLE5=Harry Secombe - The Drinking Song
TTITLE6=Kathy Kirby - Big Man
TTITLE7=Matt Monro - Gonna Build a Mountain
TTITLE8=Patti Lynn - Johnny Angel
TTITLE9=The Kaye Sisters - Paper Roses
TTITLE10=Joe Loss - Wheels Cha Cha
TTITLE11=Kenny Ball and His Jazzmen - I Still Love You All
TTITLE12=Cleo Laine - Let's Slip Away
TTITLE13=Kenny Lynch - Mountain of Love
TTITLE14=Karl Denver - Mexicali Rose
TTITLE15=The Vernon Girls - Lover Please
TTITLE16=Bruce Forsyth - Pick Yourself Up
TTITLE17=Ruby Murray - Goodbye, Jimmy Goodbye
TTITLE18=Ronnie Hilton - The Wonder of You
TTITLE19=Joan Regan - Papa Loves Mama
TTITLE20=Gary Mills - Look For a Star
TTITLE21=The King Brothers - 76 Trombones
TTITLE22=Rose Brennan - Tall Dark Stranger
TTITLE23=Tommy Steele - Butter Wouldn't Melt In Your Mouth
TTITLE24=Max Bygraves - Consider Yourself
EXTD=All tracks Mono
EXTT0=
EXTT1=
EXTT2=
EXTT3=
EXTT4=
EXTT5=
EXTT6=
EXTT7=
EXTT8=
EXTT9=
EXTT10=
EXTT11=
EXTT12=
EXTT13=
EXTT14=
EXTT15=
EXTT16=
EXTT17=
EXTT18=
EXTT19=
EXTT20=
EXTT21=
EXTT22=
EXTT23=
EXTT24=
PLAYORDER=
